<svg xmlns="http://www.w3.org/2000/svg" viewBox="0 0 940 230" width="940" height="230">
  <rect width="940" height="230" fill="#F7F5F2"/>
  <defs>
    <marker id="ab" markerWidth="7" markerHeight="6" refX="6" refY="3" orient="auto">
      <polygon points="0 0,7 3,0 6" fill="#2468A8"/>
    </marker>
    <marker id="at" markerWidth="7" markerHeight="6" refX="6" refY="3" orient="auto">
      <polygon points="0 0,7 3,0 6" fill="#1A7560"/>
    </marker>
    <style>
      text { font-family: 'Outfit', 'Segoe UI', sans-serif; }
      .mono { font-family: 'Fira Code', 'Consolas', monospace; }
    </style>
  </defs>
  <rect x="30" y="89" width="130" height="52" rx="9" fill="#EDE7DF" stroke="#C4B8AC" stroke-width="1.5"/>
  <text x="95" y="108" text-anchor="middle" font-size="12" font-weight="700" fill="#1C1916">Sensor</text>
  <text x="95" y="125" text-anchor="middle" font-size="12" font-weight="700" fill="#1C1916">Stations</text>
  <line x1="162" y1="115" x2="243" y2="115" stroke="#2468A8" stroke-width="1.8" marker-end="url(#ab)"/>
  <rect x="167.8" y="95.5" width="68.4" height="15" rx="4" fill="#DCE9F4" stroke="#7EB5D8" stroke-width="1"/>
  <text x="202" y="107" text-anchor="middle" font-family="Fira Code, Consolas, monospace" font-size="7.5" font-weight="600" fill="#2468A8">Batch ingest</text>
  <rect x="241" y="89" width="128" height="52" rx="9" fill="#EDE7DF" stroke="#C4B8AC" stroke-width="1.5"/>
  <text x="305" y="108" text-anchor="middle" font-size="12" font-weight="700" fill="#1C1916">Ingestion</text>
  <text x="305" y="125" text-anchor="middle" font-size="12" font-weight="700" fill="#1C1916">Pipeline</text>
  <line x1="371" y1="115" x2="456" y2="115" stroke="#2468A8" stroke-width="1.8" marker-end="url(#ab)"/>
  <rect x="381.4" y="95.5" width="63.2" height="15" rx="4" fill="#DCE9F4" stroke="#7EB5D8" stroke-width="1"/>
  <text x="413" y="107" text-anchor="middle" font-family="Fira Code, Consolas, monospace" font-size="7.5" font-weight="600" fill="#2468A8">Write files</text>
  <rect x="475" y="78" width="118" height="82" rx="12" fill="#B8CDE0" opacity="0.45"/>
  <rect x="471" y="74" width="118" height="82" rx="12" fill="#DCE9F4" stroke="#2468A8" stroke-width="2"/>
  <rect x="471" y="74" width="118" height="26" rx="12" fill="#2468A8"/>
  <rect x="471" y="88" width="118" height="12" fill="#2468A8"/>
  <text x="530" y="92" text-anchor="middle" class="mono" font-size="8" fill="#FFFFFF" font-weight="600" letter-spacing="0.5">OBJECT STORAGE</text>
  <text x="530" y="121" text-anchor="middle" font-size="12" font-weight="700" fill="#193D6B">Ceph / MinIO</text>
  <line x1="591" y1="115" x2="712" y2="62" stroke="#1A7560" stroke-width="1.5" marker-end="url(#at)" opacity="0.75"/>
  <rect x="633.6" y="70.5" width="26.8" height="15" rx="4" fill="#EAF5F2" stroke="#60B09C" stroke-width="1"/>
  <text x="647" y="82" text-anchor="middle" font-family="Fira Code, Consolas, monospace" font-size="7.5" font-weight="600" fill="#1A7560">Read</text>
  <rect x="714" y="40" width="132" height="44" rx="9" fill="#EAF5F2" stroke="#60B09C" stroke-width="1.5"/>
  <text x="780" y="67" text-anchor="middle" font-size="12" font-weight="700" fill="#174F43">DuckDB</text>
  <line x1="591" y1="115" x2="712" y2="115" stroke="#1A7560" stroke-width="1.5" marker-end="url(#at)" opacity="0.75"/>
  <rect x="633.6" y="97.5" width="26.8" height="15" rx="4" fill="#EAF5F2" stroke="#60B09C" stroke-width="1"/>
  <text x="647" y="109" text-anchor="middle" font-family="Fira Code, Consolas, monospace" font-size="7.5" font-weight="600" fill="#1A7560">Read</text>
  <rect x="714" y="93" width="132" height="44" rx="9" fill="#EAF5F2" stroke="#60B09C" stroke-width="1.5"/>
  <text x="780" y="120" text-anchor="middle" font-size="12" font-weight="700" fill="#174F43">Pandas / Polars</text>
  <line x1="591" y1="115" x2="712" y2="168" stroke="#1A7560" stroke-width="1.5" marker-end="url(#at)" opacity="0.75"/>
  <rect x="633.6" y="123.5" width="26.8" height="15" rx="4" fill="#EAF5F2" stroke="#60B09C" stroke-width="1"/>
  <text x="647" y="135" text-anchor="middle" font-family="Fira Code, Consolas, monospace" font-size="7.5" font-weight="600" fill="#1A7560">Read</text>
  <rect x="714" y="146" width="132" height="44" rx="9" fill="#EAF5F2" stroke="#60B09C" stroke-width="1.5"/>
  <text x="780" y="173" text-anchor="middle" font-size="12" font-weight="700" fill="#174F43">Spark / Trino</text>
</svg>