<svg xmlns="http://www.w3.org/2000/svg" viewBox="0 0 790 470" width="770" height="470">
  <rect width="790" height="470" fill="#F7F5F2"/>

  <defs>
    <marker id="ab" markerWidth="7" markerHeight="6" refX="6" refY="3" orient="auto">
      <polygon points="0 0,7 3,0 6" fill="#2468A8"/>
    </marker>
    <marker id="at" markerWidth="7" markerHeight="6" refX="6" refY="3" orient="auto">
      <polygon points="0 0,7 3,0 6" fill="#1A7560"/>
    </marker>
    <marker id="aw" markerWidth="7" markerHeight="6" refX="6" refY="3" orient="auto">
      <polygon points="0 0,7 3,0 6" fill="#5C4A3C"/>
    </marker>
    <marker id="aa" markerWidth="7" markerHeight="6" refX="6" refY="3" orient="auto">
      <polygon points="0 0,7 3,0 6" fill="#C97820"/>
    </marker>
    <style>
      text { font-family: 'Outfit', 'Segoe UI', sans-serif; }
      .mono { font-family: 'Fira Code', 'Consolas', monospace; }
    </style>
  </defs>
  <rect x="98" y="30" width="114" height="44" rx="6" fill="#EAF5F2" stroke="#1A7560" stroke-width="1.5"/>
  <text x="155" y="57" text-anchor="middle" class="mono" font-size="11" font-weight="500" fill="#174F43">DuckDB</text>
  <rect x="228" y="30" width="114" height="44" rx="6" fill="#EAF5F2" stroke="#1A7560" stroke-width="1.5"/>
  <text x="285" y="57" text-anchor="middle" class="mono" font-size="11" font-weight="500" fill="#174F43">Spark</text>
  <rect x="358" y="30" width="114" height="44" rx="6" fill="#EAF5F2" stroke="#1A7560" stroke-width="1.5"/>
  <text x="415" y="57" text-anchor="middle" class="mono" font-size="11" font-weight="500" fill="#174F43">Trino</text>
  <rect x="488" y="30" width="114" height="44" rx="6" fill="#EAF5F2" stroke="#1A7560" stroke-width="1.5"/>
  <text x="545" y="57" text-anchor="middle" class="mono" font-size="11" font-weight="500" fill="#174F43">PyIceberg</text>
  <line x1="155" y1="76" x2="155" y2="116" stroke="#1A7560" stroke-width="1.5" marker-end="url(#at)" opacity="0.6"/>
  <line x1="285" y1="76" x2="285" y2="116" stroke="#1A7560" stroke-width="1.5" marker-end="url(#at)" opacity="0.6"/>
  <line x1="415" y1="76" x2="415" y2="116" stroke="#1A7560" stroke-width="1.5" marker-end="url(#at)" opacity="0.6"/>
  <line x1="545" y1="76" x2="545" y2="116" stroke="#1A7560" stroke-width="1.5" marker-end="url(#at)" opacity="0.6"/>
  <text x="350" y="100" text-anchor="middle" class="mono" font-size="8" fill="#1A7560" opacity="0.7">reads via catalog</text>
  <rect x="58" y="118" width="584" height="58" rx="8" fill="#DCE9F4" stroke="#2468A8" stroke-width="1.5"/>
  <text x="350" y="144" text-anchor="middle" font-size="13" font-weight="700" fill="#193D6B">Iceberg Catalog</text>
  <text x="350" y="162" text-anchor="middle" class="mono" font-size="9" fill="#193D6B" opacity="0.75">REST · PostgreSQL-backed · JDBC</text>
  <text x="770" y="151" text-anchor="end" font-size="9" fill="#8A8580" font-style="italic">schema registry · version control</text>
  <line x1="350" y1="178" x2="350" y2="216" stroke="#7EB5D8" stroke-width="1.5" marker-end="url(#ab)" opacity="0.5"/>
  <rect x="58" y="218" width="584" height="58" rx="8" fill="#DDF0E2" stroke="#4A8A60" stroke-width="1.5"/>
  <text x="350" y="244" text-anchor="middle" font-size="13" font-weight="700" fill="#1C5030">Metadata Layer</text>
  <text x="350" y="262" text-anchor="middle" class="mono" font-size="9" fill="#1C5030" opacity="0.75">Snapshot JSON · table schema · partition specs</text>
  <text x="725" y="251" text-anchor="end" font-size="9" fill="#8A8580" font-style="italic">time travel · rollback</text>
  <line x1="350" y1="278" x2="350" y2="316" stroke="#7EB5D8" stroke-width="1.5" marker-end="url(#ab)" opacity="0.5"/>
  <rect x="58" y="318" width="584" height="58" rx="8" fill="#F0EBD8" stroke="#8A7040" stroke-width="1.5"/>
  <text x="350" y="344" text-anchor="middle" font-size="13" font-weight="700" fill="#5A3E18">Manifest Layer</text>
  <text x="350" y="362" text-anchor="middle" class="mono" font-size="9" fill="#5A3E18" opacity="0.75">Manifest lists · per-file column statistics · min/max</text>
  <text x="755" y="351" text-anchor="end" font-size="9" fill="#8A8580" font-style="italic">file pruning · O(1) planning</text>
  <line x1="350" y1="378" x2="350" y2="416" stroke="#7EB5D8" stroke-width="1.5" marker-end="url(#ab)" opacity="0.5"/>
  <rect x="58" y="418" width="584" height="50" rx="8" fill="#EBF3FB" stroke="#2468A8" stroke-width="1.5"/>
  <text x="350" y="444" text-anchor="middle" font-size="13" font-weight="700" fill="#193D6B">Data Files — Parquet</text>
  <text x="350" y="462" text-anchor="middle" class="mono" font-size="9" fill="#193D6B" opacity="0.75">Column-encoded · ZSTD · immutable · on Ceph / S3</text>
  <text x="785" y="447" text-anchor="end" font-size="9" fill="#8A8580" font-style="italic">open format · portable · any engine</text>
</svg>