<svg xmlns="http://www.w3.org/2000/svg" viewBox="0 0 963 330" width="963" height="330">
  <rect width="963" height="330" fill="#F7F5F2"/>

  <defs>
    <marker id="ab" markerWidth="7" markerHeight="6" refX="6" refY="3" orient="auto">
      <polygon points="0 0,7 3,0 6" fill="#2468A8"/>
    </marker>
    <marker id="at" markerWidth="7" markerHeight="6" refX="6" refY="3" orient="auto">
      <polygon points="0 0,7 3,0 6" fill="#1A7560"/>
    </marker>
    <marker id="aw" markerWidth="7" markerHeight="6" refX="6" refY="3" orient="auto">
      <polygon points="0 0,7 3,0 6" fill="#5C4A3C"/>
    </marker>
    <marker id="AB" markerWidth="9" markerHeight="7" refX="8" refY="3.5" orient="auto">
      <polygon points="0 0,9 3.5,0 7" fill="#2468A8"/>
    </marker>
    <marker id="AT" markerWidth="9" markerHeight="7" refX="8" refY="3.5" orient="auto">
      <polygon points="0 0,9 3.5,0 7" fill="#1A7560"/>
    </marker>
    <style>
      text { font-family: 'Outfit', 'Segoe UI', sans-serif; }
      .mono { font-family: 'Fira Code', 'Consolas', monospace; }
    </style>
  </defs>
  <rect x="8" y="22" width="155" height="294" rx="8" fill="#EDE7DF" stroke="#C4B8AC" stroke-width="1.5" stroke-dasharray="5,3"/>
  <text x="85" y="14" text-anchor="middle" class="mono" font-size="8" letter-spacing="1.3" fill="#9A8880" font-weight="600">FIELD</text>
  <rect x="213" y="22" width="148" height="294" rx="8" fill="#EDE7DF" stroke="#C4B8AC" stroke-width="1.5" stroke-dasharray="5,3"/>
  <text x="287" y="14" text-anchor="middle" class="mono" font-size="8" letter-spacing="1.3" fill="#9A8880" font-weight="600">INGESTION</text>
  <rect x="411" y="22" width="232" height="294" rx="8" fill="#EBF3FB" stroke="#2468A8" stroke-width="2"/>
  <text x="527" y="14" text-anchor="middle" class="mono" font-size="8" letter-spacing="1.3" fill="#193D6B" font-weight="600">OPENSTACK</text>
  <rect x="693" y="22" width="262" height="294" rx="8" fill="#EAF5F2" stroke="#60B09C" stroke-width="1.5" stroke-dasharray="5,3"/>
  <text x="824" y="14" text-anchor="middle" class="mono" font-size="8" letter-spacing="1.3" fill="#174F43" font-weight="600">ANALYTICS</text>
  <rect x="18" y="42" width="135" height="38" rx="5" fill="#FFFFFF" stroke="#C4B8AC" stroke-width="1"/>
  <text x="85" y="57" text-anchor="middle" class="mono" font-size="10" fill="#1C1916">ST-001</text>
  <text x="85" y="71" text-anchor="middle" font-size="8.5" fill="#8A8580">10 sensors</text>
  <rect x="18" y="98" width="135" height="38" rx="5" fill="#FFFFFF" stroke="#C4B8AC" stroke-width="1"/>
  <text x="85" y="113" text-anchor="middle" class="mono" font-size="10" fill="#1C1916">ST-002</text>
  <text x="85" y="127" text-anchor="middle" font-size="8.5" fill="#8A8580">10 sensors</text>
  <rect x="18" y="154" width="135" height="38" rx="5" fill="#FFFFFF" stroke="#C4B8AC" stroke-width="1"/>
  <text x="85" y="169" text-anchor="middle" class="mono" font-size="10" fill="#1C1916">ST-003</text>
  <text x="85" y="183" text-anchor="middle" font-size="8.5" fill="#8A8580">10 sensors</text>
  <rect x="18" y="210" width="135" height="38" rx="5" fill="#FFFFFF" stroke="#C4B8AC" stroke-width="1" opacity="0.5"/>
  <text x="85" y="225" text-anchor="middle" class="mono" font-size="10" fill="#8A8580">× 97 more</text>
  <line x1="163" y1="61" x2="221" y2="165" stroke="#C4B8AC" stroke-width="1" opacity="0.45"/>
  <line x1="163" y1="117" x2="221" y2="165" stroke="#C4B8AC" stroke-width="1" opacity="0.45"/>
  <line x1="163" y1="173" x2="221" y2="165" stroke="#C4B8AC" stroke-width="1" opacity="0.45"/>
  <rect x="223" y="126" width="128" height="78" rx="7" fill="#FFFFFF" stroke="#C4B8AC" stroke-width="1.5"/>
  <text x="287" y="153" text-anchor="middle" font-size="12" font-weight="700" fill="#1C1916">Batch Ingest</text>
  <text x="287" y="170" text-anchor="middle" class="mono" font-size="9" fill="#4A4540">Python · PyIceberg</text>
  <text x="287" y="186" text-anchor="middle" class="mono" font-size="9" fill="#4A4540">Airflow / cron</text>
  <line x1="361" y1="165" x2="410" y2="165" stroke="#2468A8" stroke-width="2.5" marker-end="url(#AB)"/>
  <rect x="364.8" y="145" width="42.4" height="14" rx="4" fill="#EBF3FB" stroke="#7EB5D8" stroke-width="1"/>
  <text x="386" y="156.5" text-anchor="middle" class="mono" font-size="7.5" font-weight="600" fill="#2468A8">append</text>
  <rect x="425" y="38" width="204" height="74" rx="8" fill="#DCE9F4" stroke="#2468A8" stroke-width="1.5"/>
  <text x="527" y="66" text-anchor="middle" font-size="12" font-weight="700" fill="#193D6B">Ceph Object Storage</text>
  <text x="527" y="82" text-anchor="middle" class="mono" font-size="9" fill="#2468A8">S3-compatible · permanent</text>
  <text x="527" y="98" text-anchor="middle" class="mono" font-size="9" fill="#2468A8">terabyte-scale durable store</text>
  <line x1="527" y1="114" x2="527" y2="130" stroke="#2468A8" stroke-width="1.5" marker-end="url(#ab)" opacity="0.6"/>
  <rect x="425" y="132" width="204" height="166" rx="8" fill="#EBF3FB" stroke="#2468A8" stroke-width="1.5"/>
  <text x="527" y="160" text-anchor="middle" font-size="13" font-weight="700" fill="#193D6B">Iceberg Table</text>
  <text x="527" y="178" text-anchor="middle" class="mono" font-size="9" fill="#2468A8">Parquet data files</text>
  <text x="527" y="200" text-anchor="middle" font-size="10" fill="#193D6B">schema evolution</text>
  <text x="527" y="218" text-anchor="middle" font-size="10" fill="#193D6B">time travel · snapshots</text>
  <text x="527" y="236" text-anchor="middle" font-size="10" fill="#193D6B">REST catalog (PostgreSQL)</text>
  <text x="527" y="254" text-anchor="middle" font-size="10" fill="#193D6B">atomic commits</text>
  <text x="527" y="278" text-anchor="middle" class="mono" font-size="8.5" fill="#2468A8" opacity="0.65">open format · portable</text>
  <line x1="643" y1="165" x2="692" y2="72" stroke="#1A7560" stroke-width="1.8" marker-end="url(#AT)" opacity="0.7"/>
  <line x1="643" y1="165" x2="692" y2="166" stroke="#1A7560" stroke-width="1.8" marker-end="url(#AT)" opacity="0.7"/>
  <line x1="643" y1="165" x2="692" y2="260" stroke="#1A7560" stroke-width="1.8" marker-end="url(#AT)" opacity="0.7"/>
  <rect x="652.2" y="145" width="31.6" height="14" rx="4" fill="#EAF5F2" stroke="#60B09C" stroke-width="1"/>
  <text x="668" y="156.5" text-anchor="middle" class="mono" font-size="7.5" font-weight="600" fill="#1A7560">read</text>
  <rect x="703" y="42" width="242" height="62" rx="7" fill="#EAF5F2" stroke="#60B09C" stroke-width="1.5"/>
  <text x="824" y="70" text-anchor="middle" font-size="13" font-weight="700" fill="#174F43">DuckDB</text>
  <text x="824" y="88" text-anchor="middle" class="mono" font-size="9" fill="#1A7560">Ad-hoc · Research</text>
  <rect x="703" y="136" width="242" height="62" rx="7" fill="#EAF5F2" stroke="#60B09C" stroke-width="1.5"/>
  <text x="824" y="164" text-anchor="middle" font-size="13" font-weight="700" fill="#174F43">Apache Superset</text>
  <text x="824" y="182" text-anchor="middle" class="mono" font-size="9" fill="#1A7560">Dashboards</text>
  <rect x="703" y="230" width="242" height="62" rx="7" fill="#EAF5F2" stroke="#60B09C" stroke-width="1.5"/>
  <text x="824" y="258" text-anchor="middle" font-size="13" font-weight="700" fill="#174F43">Jupyter</text>
  <text x="824" y="276" text-anchor="middle" class="mono" font-size="9" fill="#1A7560">Notebooks</text>
</svg>